<svg xmlns="http://www.w3.org/2000/svg" width="100" height="100"><g transform="translate(0 -952.362)"><path fill="#04cb94" d="m -316.17776,56.563438 c 0,48.536592 -39.34669,87.883272 -87.88328,87.883272 -48.53659,0 -87.88327,-39.34668 -87.88327,-87.883272 0,-48.5365895 39.34668,-87.88327 87.88327,-87.88327 48.53659,0 87.88328,39.3466805 87.88328,87.88327 z" transform="matrix(.51204 0 0 .51204 256.897 973.4)"/><path fill="none" stroke="#000" stroke-width="53.113" d="m 301.96311,501.40745 c -54.20354,28.54697 -118.69624,29.85688 -174.01424,3.53441" transform="matrix(.07531 -.00012 -.00012 -.07531 33.344 1031.336)"/><path fill="none" stroke="#000" stroke-linecap="round" stroke-linejoin="round" stroke-width="53.113" d="m -299.32125,107.49244 c -19.16385,9.49918 -41.96546,9.93506 -61.52333,1.1761" transform="translate(43.665 984.546) scale(.07531)"/><path fill="none" stroke="#000" stroke-linecap="round" stroke-linejoin="round" stroke-width="53.113" d="m -299.32125,107.49244 c -19.16385,9.49918 -41.96546,9.93506 -61.52333,1.1761" transform="translate(105.169 985.05) scale(.07531)"/><g transform="translate(35.608)"><path fill="none" stroke="#000" stroke-width="53.113" d="m 405.71429,329.50504 c 0,107.30104 -86.98468,194.28572 -194.28572,194.28572 -107.30104,0 -194.285717,-86.98468 -194.285717,-194.28572 0,-107.30105 86.984677,-194.28573 194.285717,-194.28573 107.30104,0 194.28572,86.98468 194.28572,194.28573 z" transform="translate(15.877 978.083) scale(.07531)"/><path fill="#fff" d="m 405.71429,329.50504 c 0,107.30104 -86.98468,194.28572 -194.28572,194.28572 -107.30104,0 -194.285717,-86.98468 -194.285717,-194.28572 0,-107.30105 86.984677,-194.28573 194.285717,-194.28573 107.30104,0 194.28572,86.98468 194.28572,194.28573 z" opacity=".7" transform="translate(17.834 981.308) scale(.06556)"/></g><path fill="none" stroke="#fff" stroke-linecap="round" stroke-linejoin="round" stroke-width="25.003" d="m 400.45098,374.42133 c -12.18788,51.29056 -44.69576,95.42624 -90.06345,122.2784" opacity=".75" transform="translate(47.624 974.504) scale(.07531)"/><path fill="none" stroke="#000" stroke-width="53.113" d="m 405.71429,329.50504 c 0,107.30104 -86.98468,194.28572 -194.28572,194.28572 -107.30104,0 -194.285717,-86.98468 -194.285717,-194.28572 0,-107.30105 86.984677,-194.28573 194.285717,-194.28573 107.30104,0 194.28572,86.98468 194.28572,194.28573 z" transform="translate(15.877 978.083) scale(.07531)"/><path fill="#fff" d="m 405.71429,329.50504 c 0,107.30104 -86.98468,194.28572 -194.28572,194.28572 -107.30104,0 -194.285717,-86.98468 -194.285717,-194.28572 0,-107.30105 86.984677,-194.28573 194.285717,-194.28573 107.30104,0 194.28572,86.98468 194.28572,194.28573 z" opacity=".7" transform="translate(17.834 981.308) scale(.06556)"/></g></svg>